<svg width="304" height="61" viewBox="0 0 304 61" fill="none" xmlns="http://www.w3.org/2000/svg">
<path d="M15.288 59.856C11.64 59.856 8.736 59.184 6.576 57.84C4.416 56.496 2.856 54.576 1.896 52.08C0.984 49.584 0.528 46.584 0.528 43.08V40.2H8.232V42.504C8.232 44.616 8.328 46.512 8.52 48.192C8.76 49.872 9.36 51.192 10.32 52.152C11.328 53.064 12.96 53.52 15.216 53.52C17.52 53.52 19.2 53.016 20.256 52.008C21.312 51 21.984 49.584 22.272 47.76C22.56 45.936 22.704 43.824 22.704 41.424V32.208H12.48V26.88H22.704V18.384C22.704 15.456 22.464 13.152 21.984 11.472C21.504 9.744 20.712 8.52 19.608 7.8C18.552 7.08 17.088 6.72 15.216 6.72C13.056 6.72 11.472 7.2 10.464 8.16C9.504 9.12 8.88 10.488 8.592 12.264C8.352 13.992 8.232 16.008 8.232 18.312V20.832H0.528V18.24C0.528 14.688 0.96 11.568 1.824 8.88C2.688 6.192 4.176 4.104 6.288 2.616C8.448 1.08 11.448 0.311996 15.288 0.311996C19.416 0.311996 22.608 1.176 24.864 2.904C27.12 4.632 28.68 6.96 29.544 9.888C30.456 12.768 30.912 16.032 30.912 19.68V40.272C30.912 44.208 30.456 47.664 29.544 50.64C28.68 53.568 27.12 55.848 24.864 57.48C22.608 59.064 19.416 59.856 15.288 59.856ZM38.2239 60V18.384H45.9279V35.88H55.7919V18.384H63.4959V60H55.7919V41.496H45.9279V60H38.2239ZM71.2708 60V18.384H78.9748V35.952H81.1348L88.9828 18.384H96.9028L88.1908 38.544L97.0468 60H88.9828L81.1348 40.56H78.9748V60H71.2708ZM101.154 60V18.384H107.634V46.392L120.162 18.384H126.21V60H119.874V31.776L107.418 60H101.154ZM133.7 41.208V35.376H149.756V41.208H133.7ZM157.841 60V1.68H182.897V7.584H165.977V25.944H167.777C172.001 25.944 175.481 26.448 178.217 27.456C181.001 28.416 183.065 30.12 184.409 32.568C185.801 35.016 186.497 38.472 186.497 42.936C186.497 45.96 186.137 48.552 185.417 50.712C184.697 52.824 183.569 54.576 182.033 55.968C180.545 57.36 178.649 58.392 176.345 59.064C174.089 59.688 171.377 60 168.209 60H157.841ZM165.977 54.168H168.281C170.681 54.168 172.649 53.904 174.185 53.376C175.769 52.8 176.921 51.696 177.641 50.064C178.409 48.432 178.793 46.032 178.793 42.864C178.793 38.88 178.025 36.048 176.489 34.368C175.001 32.688 172.193 31.848 168.065 31.848H165.977V54.168ZM204.291 60.576C201.027 60.576 198.507 59.952 196.731 58.704C194.955 57.408 193.707 55.536 192.987 53.088C192.315 50.592 191.979 47.544 191.979 43.944V34.44C191.979 30.744 192.339 27.672 193.059 25.224C193.779 22.776 195.027 20.928 196.803 19.68C198.627 18.432 201.123 17.808 204.291 17.808C207.795 17.808 210.363 18.528 211.995 19.968C213.675 21.408 214.779 23.496 215.307 26.232C215.835 28.92 216.099 32.16 216.099 35.952V39.336H199.683V47.688C199.683 49.368 199.827 50.736 200.115 51.792C200.451 52.848 200.955 53.64 201.627 54.168C202.347 54.648 203.259 54.888 204.363 54.888C205.515 54.888 206.379 54.624 206.955 54.096C207.579 53.52 207.987 52.728 208.179 51.72C208.419 50.664 208.539 49.44 208.539 48.048V45.528H216.027V47.112C216.027 51.288 215.139 54.576 213.363 56.976C211.587 59.376 208.563 60.576 204.291 60.576ZM199.683 35.16H208.539V31.416C208.539 29.688 208.443 28.248 208.251 27.096C208.059 25.896 207.651 25.008 207.027 24.432C206.451 23.808 205.515 23.496 204.219 23.496C202.971 23.496 202.011 23.784 201.339 24.36C200.715 24.936 200.283 25.92 200.043 27.312C199.803 28.656 199.683 30.528 199.683 32.928V35.16ZM227.474 60V24.144H219.698V18.384H243.026V24.144H235.178V60H227.474ZM258.711 60.576C255.639 60.576 253.215 59.952 251.439 58.704C249.663 57.456 248.391 55.68 247.623 53.376C246.903 51.072 246.543 48.36 246.543 45.24V33.144C246.543 30.024 246.903 27.312 247.623 25.008C248.391 22.704 249.663 20.928 251.439 19.68C253.215 18.432 255.639 17.808 258.711 17.808C261.783 17.808 264.183 18.432 265.911 19.68C267.687 20.928 268.935 22.704 269.655 25.008C270.423 27.312 270.807 30.024 270.807 33.144V45.24C270.807 48.36 270.423 51.072 269.655 53.376C268.935 55.68 267.687 57.456 265.911 58.704C264.183 59.952 261.783 60.576 258.711 60.576ZM258.711 54.888C260.199 54.888 261.231 54.456 261.807 53.592C262.431 52.728 262.791 51.6 262.887 50.208C263.031 48.768 263.103 47.28 263.103 45.744V32.712C263.103 31.128 263.031 29.64 262.887 28.248C262.791 26.856 262.431 25.728 261.807 24.864C261.231 23.952 260.199 23.496 258.711 23.496C257.223 23.496 256.167 23.952 255.543 24.864C254.919 25.728 254.535 26.856 254.391 28.248C254.295 29.64 254.247 31.128 254.247 32.712V45.744C254.247 47.28 254.295 48.768 254.391 50.208C254.535 51.6 254.919 52.728 255.543 53.592C256.167 54.456 257.223 54.888 258.711 54.888ZM277.849 60V18.384H285.553V35.88H295.417V18.384H303.121V60H295.417V41.496H285.553V60H277.849Z" fill="#C2C4CA"/>
<path d="M15.288 59.856C11.64 59.856 8.736 59.184 6.576 57.84C4.416 56.496 2.856 54.576 1.896 52.08C0.984 49.584 0.528 46.584 0.528 43.08V40.2H8.232V42.504C8.232 44.616 8.328 46.512 8.52 48.192C8.76 49.872 9.36 51.192 10.32 52.152C11.328 53.064 12.96 53.52 15.216 53.52C17.52 53.52 19.2 53.016 20.256 52.008C21.312 51 21.984 49.584 22.272 47.76C22.56 45.936 22.704 43.824 22.704 41.424V32.208H12.48V26.88H22.704V18.384C22.704 15.456 22.464 13.152 21.984 11.472C21.504 9.744 20.712 8.52 19.608 7.8C18.552 7.08 17.088 6.72 15.216 6.72C13.056 6.72 11.472 7.2 10.464 8.16C9.504 9.12 8.88 10.488 8.592 12.264C8.352 13.992 8.232 16.008 8.232 18.312V20.832H0.528V18.24C0.528 14.688 0.96 11.568 1.824 8.88C2.688 6.192 4.176 4.104 6.288 2.616C8.448 1.08 11.448 0.311996 15.288 0.311996C19.416 0.311996 22.608 1.176 24.864 2.904C27.12 4.632 28.68 6.96 29.544 9.888C30.456 12.768 30.912 16.032 30.912 19.68V40.272C30.912 44.208 30.456 47.664 29.544 50.64C28.68 53.568 27.12 55.848 24.864 57.48C22.608 59.064 19.416 59.856 15.288 59.856ZM38.2239 60V18.384H45.9279V35.88H55.7919V18.384H63.4959V60H55.7919V41.496H45.9279V60H38.2239ZM71.2708 60V18.384H78.9748V35.952H81.1348L88.9828 18.384H96.9028L88.1908 38.544L97.0468 60H88.9828L81.1348 40.56H78.9748V60H71.2708ZM101.154 60V18.384H107.634V46.392L120.162 18.384H126.21V60H119.874V31.776L107.418 60H101.154ZM133.7 41.208V35.376H149.756V41.208H133.7ZM157.841 60V1.68H182.897V7.584H165.977V25.944H167.777C172.001 25.944 175.481 26.448 178.217 27.456C181.001 28.416 183.065 30.12 184.409 32.568C185.801 35.016 186.497 38.472 186.497 42.936C186.497 45.96 186.137 48.552 185.417 50.712C184.697 52.824 183.569 54.576 182.033 55.968C180.545 57.36 178.649 58.392 176.345 59.064C174.089 59.688 171.377 60 168.209 60H157.841ZM165.977 54.168H168.281C170.681 54.168 172.649 53.904 174.185 53.376C175.769 52.8 176.921 51.696 177.641 50.064C178.409 48.432 178.793 46.032 178.793 42.864C178.793 38.88 178.025 36.048 176.489 34.368C175.001 32.688 172.193 31.848 168.065 31.848H165.977V54.168ZM204.291 60.576C201.027 60.576 198.507 59.952 196.731 58.704C194.955 57.408 193.707 55.536 192.987 53.088C192.315 50.592 191.979 47.544 191.979 43.944V34.44C191.979 30.744 192.339 27.672 193.059 25.224C193.779 22.776 195.027 20.928 196.803 19.68C198.627 18.432 201.123 17.808 204.291 17.808C207.795 17.808 210.363 18.528 211.995 19.968C213.675 21.408 214.779 23.496 215.307 26.232C215.835 28.92 216.099 32.16 216.099 35.952V39.336H199.683V47.688C199.683 49.368 199.827 50.736 200.115 51.792C200.451 52.848 200.955 53.64 201.627 54.168C202.347 54.648 203.259 54.888 204.363 54.888C205.515 54.888 206.379 54.624 206.955 54.096C207.579 53.52 207.987 52.728 208.179 51.72C208.419 50.664 208.539 49.44 208.539 48.048V45.528H216.027V47.112C216.027 51.288 215.139 54.576 213.363 56.976C211.587 59.376 208.563 60.576 204.291 60.576ZM199.683 35.16H208.539V31.416C208.539 29.688 208.443 28.248 208.251 27.096C208.059 25.896 207.651 25.008 207.027 24.432C206.451 23.808 205.515 23.496 204.219 23.496C202.971 23.496 202.011 23.784 201.339 24.36C200.715 24.936 200.283 25.92 200.043 27.312C199.803 28.656 199.683 30.528 199.683 32.928V35.16ZM227.474 60V24.144H219.698V18.384H243.026V24.144H235.178V60H227.474ZM258.711 60.576C255.639 60.576 253.215 59.952 251.439 58.704C249.663 57.456 248.391 55.68 247.623 53.376C246.903 51.072 246.543 48.36 246.543 45.24V33.144C246.543 30.024 246.903 27.312 247.623 25.008C248.391 22.704 249.663 20.928 251.439 19.68C253.215 18.432 255.639 17.808 258.711 17.808C261.783 17.808 264.183 18.432 265.911 19.68C267.687 20.928 268.935 22.704 269.655 25.008C270.423 27.312 270.807 30.024 270.807 33.144V45.24C270.807 48.36 270.423 51.072 269.655 53.376C268.935 55.68 267.687 57.456 265.911 58.704C264.183 59.952 261.783 60.576 258.711 60.576ZM258.711 54.888C260.199 54.888 261.231 54.456 261.807 53.592C262.431 52.728 262.791 51.6 262.887 50.208C263.031 48.768 263.103 47.28 263.103 45.744V32.712C263.103 31.128 263.031 29.64 262.887 28.248C262.791 26.856 262.431 25.728 261.807 24.864C261.231 23.952 260.199 23.496 258.711 23.496C257.223 23.496 256.167 23.952 255.543 24.864C254.919 25.728 254.535 26.856 254.391 28.248C254.295 29.64 254.247 31.128 254.247 32.712V45.744C254.247 47.28 254.295 48.768 254.391 50.208C254.535 51.6 254.919 52.728 255.543 53.592C256.167 54.456 257.223 54.888 258.711 54.888ZM277.849 60V18.384H285.553V35.88H295.417V18.384H303.121V60H295.417V41.496H285.553V60H277.849Z" fill="#1E1E1E"/>
</svg>
