<svg width="606" height="122" viewBox="0 0 606 122" fill="none" xmlns="http://www.w3.org/2000/svg">
<path d="M29.576 119.712C22.28 119.712 16.472 118.368 12.152 115.68C7.832 112.992 4.712 109.152 2.792 104.16C0.968 99.168 0.0560004 93.168 0.0560004 86.16V80.4H15.464V85.008C15.464 89.232 15.656 93.024 16.04 96.384C16.52 99.744 17.72 102.384 19.64 104.304C21.656 106.128 24.92 107.04 29.432 107.04C34.04 107.04 37.4 106.032 39.512 104.016C41.624 102 42.968 99.168 43.544 95.52C44.12 91.872 44.408 87.648 44.408 82.848V64.416H23.96V53.76H44.408V36.768C44.408 30.912 43.928 26.304 42.968 22.944C42.008 19.488 40.424 17.04 38.216 15.6C36.104 14.16 33.176 13.44 29.432 13.44C25.112 13.44 21.944 14.4 19.928 16.32C18.008 18.24 16.76 20.976 16.184 24.528C15.704 27.984 15.464 32.016 15.464 36.624V41.664H0.0560004V36.48C0.0560004 29.376 0.92 23.136 2.648 17.76C4.376 12.384 7.352 8.20799 11.576 5.23199C15.896 2.15999 21.896 0.623992 29.576 0.623992C37.832 0.623992 44.216 2.35199 48.728 5.80799C53.24 9.264 56.36 13.92 58.088 19.776C59.912 25.536 60.824 32.064 60.824 39.36V80.544C60.824 88.416 59.912 95.328 58.088 101.28C56.36 107.136 53.24 111.696 48.728 114.96C44.216 118.128 37.832 119.712 29.576 119.712ZM75.4479 120V36.768H90.8559V71.76H110.584V36.768H125.992V120H110.584V82.992H90.8559V120H75.4479ZM141.542 120V36.768H156.95V71.904H161.27L176.966 36.768H192.806L175.382 77.088L193.094 120H176.966L161.27 81.12H156.95V120H141.542ZM201.307 120V36.768H214.267V92.784L239.323 36.768H251.419V120H238.747V63.552L213.835 120H201.307ZM266.4 82.416V70.752H298.512V82.416H266.4ZM314.681 120V3.35999H364.793V15.168H330.953V51.888H334.553C343.001 51.888 349.961 52.896 355.433 54.912C361.001 56.832 365.129 60.24 367.817 65.136C370.601 70.032 371.993 76.944 371.993 85.872C371.993 91.92 371.273 97.104 369.833 101.424C368.393 105.648 366.137 109.152 363.065 111.936C360.089 114.72 356.297 116.784 351.689 118.128C347.177 119.376 341.753 120 335.417 120H314.681ZM330.953 108.336H335.561C340.361 108.336 344.297 107.808 347.369 106.752C350.537 105.6 352.841 103.392 354.281 100.128C355.817 96.864 356.585 92.064 356.585 85.728C356.585 77.76 355.049 72.096 351.977 68.736C349.001 65.376 343.385 63.696 335.129 63.696H330.953V108.336ZM407.582 121.152C401.054 121.152 396.014 119.904 392.462 117.408C388.91 114.816 386.414 111.072 384.974 106.176C383.63 101.184 382.958 95.088 382.958 87.888V68.88C382.958 61.488 383.678 55.344 385.118 50.448C386.558 45.552 389.054 41.856 392.606 39.36C396.254 36.864 401.246 35.616 407.582 35.616C414.59 35.616 419.726 37.056 422.99 39.936C426.35 42.816 428.558 46.992 429.614 52.464C430.67 57.84 431.198 64.32 431.198 71.904V78.672H398.366V95.376C398.366 98.736 398.654 101.472 399.23 103.584C399.902 105.696 400.91 107.28 402.254 108.336C403.694 109.296 405.518 109.776 407.726 109.776C410.03 109.776 411.758 109.248 412.91 108.192C414.158 107.04 414.974 105.456 415.358 103.44C415.838 101.328 416.078 98.88 416.078 96.096V91.056H431.054V94.224C431.054 102.576 429.278 109.152 425.726 113.952C422.174 118.752 416.126 121.152 407.582 121.152ZM398.366 70.32H416.078V62.832C416.078 59.376 415.886 56.496 415.502 54.192C415.118 51.792 414.302 50.016 413.054 48.864C411.902 47.616 410.03 46.992 407.438 46.992C404.942 46.992 403.022 47.568 401.678 48.72C400.43 49.872 399.566 51.84 399.086 54.624C398.606 57.312 398.366 61.056 398.366 65.856V70.32ZM453.949 120V48.288H438.397V36.768H485.053V48.288H469.357V120H453.949ZM516.422 121.152C510.278 121.152 505.43 119.904 501.878 117.408C498.326 114.912 495.782 111.36 494.246 106.752C492.806 102.144 492.086 96.72 492.086 90.48V66.288C492.086 60.048 492.806 54.624 494.246 50.016C495.782 45.408 498.326 41.856 501.878 39.36C505.43 36.864 510.278 35.616 516.422 35.616C522.566 35.616 527.366 36.864 530.822 39.36C534.374 41.856 536.87 45.408 538.31 50.016C539.846 54.624 540.614 60.048 540.614 66.288V90.48C540.614 96.72 539.846 102.144 538.31 106.752C536.87 111.36 534.374 114.912 530.822 117.408C527.366 119.904 522.566 121.152 516.422 121.152ZM516.422 109.776C519.398 109.776 521.462 108.912 522.614 107.184C523.862 105.456 524.582 103.2 524.774 100.416C525.062 97.536 525.206 94.56 525.206 91.488V65.424C525.206 62.256 525.062 59.28 524.774 56.496C524.582 53.712 523.862 51.456 522.614 49.728C521.462 47.904 519.398 46.992 516.422 46.992C513.446 46.992 511.334 47.904 510.086 49.728C508.838 51.456 508.07 53.712 507.782 56.496C507.59 59.28 507.494 62.256 507.494 65.424V91.488C507.494 94.56 507.59 97.536 507.782 100.416C508.07 103.2 508.838 105.456 510.086 107.184C511.334 108.912 513.446 109.776 516.422 109.776ZM554.698 120V36.768H570.106V71.76H589.834V36.768H605.242V120H589.834V82.992H570.106V120H554.698Z" fill="#B9B9B9"/>
</svg>
